<svg xmlns="http://www.w3.org/2000/svg" viewBox="0 0 32 32" role="img" aria-label="Heart">
  <defs>
    <linearGradient id="h" x1="0%" y1="0%" x2="100%" y2="100%">
      <stop offset="0%" stop-color="#ff8fab"/>
      <stop offset="55%" stop-color="#f43f5e"/>
      <stop offset="100%" stop-color="#e11d48"/>
    </linearGradient>
  </defs>
  <!-- Classic heart; chunky shape reads clearly at 16–32px -->
  <path
    fill="url(#h)"
    d="M16 28.2C6.8 20.4 3 15.6 3 11.3 3 7.4 5.9 4.5 9.7 4.5c2.4 0 4.6 1.2 6.3 3.1 1.7-1.9 3.9-3.1 6.3-3.1C26.1 4.5 29 7.4 29 11.3c0 4.3-3.8 9.1-13 16.9L16 28.2z"
  />
  <path
    fill="#fff"
    fill-opacity="0.35"
    d="M11.5 9.2c-2.1.2-3.7 1.8-3.9 3.8-.1 1.1.2 2.2.8 3.2.3-2.5 1.8-4.7 3.9-6.3-.3-.4-.5-.6-.8-.7z"
  />
</svg>
